<?xml version="1.0" encoding="UTF-8"?>
<svg xmlns="http://www.w3.org/2000/svg" xmlns:xlink="http://www.w3.org/1999/xlink" width="50px" height="34px" viewBox="0 0 49 34" version="1.1">
<defs>
<filter id="alpha" filterUnits="objectBoundingBox" x="0%" y="0%" width="100%" height="100%">
  <feColorMatrix type="matrix" in="SourceGraphic" values="0 0 0 0 1 0 0 0 0 1 0 0 0 0 1 0 0 0 1 0"/>
</filter>
<mask id="mask0">
  <g filter="url(#alpha)">
<rect x="0" y="0" width="49" height="34" style="fill:rgb(0%,0%,0%);fill-opacity:0.627451;stroke:none;"/>
  </g>
</mask>
<clipPath id="clip1">
  <rect x="0" y="0" width="49" height="34"/>
</clipPath>
<g id="surface5" clip-path="url(#clip1)">
<path style=" stroke:none;fill-rule:evenodd;fill:rgb(58.431373%,58.431373%,58.431373%);fill-opacity:1;" d="M 32.914062 1.765625 C 32.789062 2.0625 32.566406 2.230469 32.253906 2.273438 C 32.378906 1.976562 32.601562 1.808594 32.914062 1.765625 Z M 32.914062 1.765625 "/>
</g>
<mask id="mask1">
  <g filter="url(#alpha)">
<rect x="0" y="0" width="49" height="34" style="fill:rgb(0%,0%,0%);fill-opacity:0.854902;stroke:none;"/>
  </g>
</mask>
<clipPath id="clip2">
  <rect x="0" y="0" width="49" height="34"/>
</clipPath>
<g id="surface8" clip-path="url(#clip2)">
<path style=" stroke:none;fill-rule:evenodd;fill:rgb(43.529412%,43.529412%,43.529412%);fill-opacity:1;" d="M 19.054688 1.9375 C 18.660156 2.148438 18.21875 2.261719 17.734375 2.273438 C 18.121094 2.011719 18.5625 1.902344 19.054688 1.9375 Z M 19.054688 1.9375 "/>
</g>
<mask id="mask2">
  <g filter="url(#alpha)">
<rect x="0" y="0" width="49" height="34" style="fill:rgb(0%,0%,0%);fill-opacity:0.905882;stroke:none;"/>
  </g>
</mask>
<clipPath id="clip3">
  <rect x="0" y="0" width="49" height="34"/>
</clipPath>
<g id="surface11" clip-path="url(#clip3)">
<path style=" stroke:none;fill-rule:evenodd;fill:rgb(43.921569%,43.921569%,43.921569%);fill-opacity:1;" d="M 16.910156 2.441406 C 16.5625 2.804688 16.121094 2.972656 15.589844 2.945312 C 15.992188 2.714844 16.433594 2.546875 16.910156 2.441406 Z M 16.910156 2.441406 "/>
</g>
<mask id="mask3">
  <g filter="url(#alpha)">
<rect x="0" y="0" width="49" height="34" style="fill:rgb(0%,0%,0%);fill-opacity:0.717647;stroke:none;"/>
  </g>
</mask>
<clipPath id="clip4">
  <rect x="0" y="0" width="49" height="34"/>
</clipPath>
<g id="surface14" clip-path="url(#clip4)">
<path style=" stroke:none;fill-rule:evenodd;fill:rgb(67.843137%,67.45098%,66.666667%);fill-opacity:1;" d="M 24.996094 2.945312 C 25.523438 2.894531 26.019531 2.949219 26.480469 3.113281 C 26.507812 3.28125 26.453125 3.394531 26.316406 3.449219 C 25.925781 3.179688 25.484375 3.011719 24.996094 2.945312 Z M 24.996094 2.945312 "/>
</g>
<mask id="mask4">
  <g filter="url(#alpha)">
<rect x="0" y="0" width="49" height="34" style="fill:rgb(0%,0%,0%);fill-opacity:0.858824;stroke:none;"/>
  </g>
</mask>
<clipPath id="clip5">
  <rect x="0" y="0" width="49" height="34"/>
</clipPath>
<g id="surface17" clip-path="url(#clip5)">
<path style=" stroke:none;fill-rule:evenodd;fill:rgb(42.352941%,42.352941%,42.352941%);fill-opacity:1;" d="M 8.828125 3.113281 C 8.429688 3.328125 7.988281 3.441406 7.507812 3.449219 C 7.890625 3.191406 8.332031 3.078125 8.828125 3.113281 Z M 8.828125 3.113281 "/>
</g>
<mask id="mask5">
  <g filter="url(#alpha)">
<rect x="0" y="0" width="49" height="34" style="fill:rgb(0%,0%,0%);fill-opacity:0.733333;stroke:none;"/>
  </g>
</mask>
<clipPath id="clip6">
  <rect x="0" y="0" width="49" height="34"/>
</clipPath>
<g id="surface20" clip-path="url(#clip6)">
<path style=" stroke:none;fill-rule:evenodd;fill:rgb(58.039216%,58.039216%,58.039216%);fill-opacity:1;" d="M 11.136719 4.460938 C 11.449219 4.5 11.671875 4.667969 11.796875 4.964844 C 11.480469 4.925781 11.261719 4.757812 11.136719 4.460938 Z M 11.136719 4.460938 "/>
</g>
<mask id="mask6">
  <g filter="url(#alpha)">
<rect x="0" y="0" width="49" height="34" style="fill:rgb(0%,0%,0%);fill-opacity:0.694118;stroke:none;"/>
  </g>
</mask>
<clipPath id="clip7">
  <rect x="0" y="0" width="49" height="34"/>
</clipPath>
<g id="surface23" clip-path="url(#clip7)">
<path style=" stroke:none;fill-rule:evenodd;fill:rgb(57.254902%,57.254902%,57.254902%);fill-opacity:1;" d="M 4.703125 4.628906 C 4.625 4.867188 4.457031 4.976562 4.207031 4.964844 C 4.285156 4.730469 4.449219 4.617188 4.703125 4.628906 Z M 4.703125 4.628906 "/>
</g>
<mask id="mask7">
  <g filter="url(#alpha)">
<rect x="0" y="0" width="49" height="34" style="fill:rgb(0%,0%,0%);fill-opacity:0.458824;stroke:none;"/>
  </g>
</mask>
<clipPath id="clip8">
  <rect x="0" y="0" width="49" height="34"/>
</clipPath>
<g id="surface26" clip-path="url(#clip8)">
<path style=" stroke:none;fill-rule:evenodd;fill:rgb(58.431373%,58.431373%,58.431373%);fill-opacity:1;" d="M 43.804688 4.292969 C 44.039062 4.632812 44.148438 5.023438 44.132812 5.46875 C 43.898438 5.132812 43.789062 4.738281 43.804688 4.292969 Z M 43.804688 4.292969 "/>
</g>
<mask id="mask8">
  <g filter="url(#alpha)">
<rect x="0" y="0" width="49" height="34" style="fill:rgb(0%,0%,0%);fill-opacity:0.8;stroke:none;"/>
  </g>
</mask>
<clipPath id="clip9">
  <rect x="0" y="0" width="49" height="34"/>
</clipPath>
<g id="surface29" clip-path="url(#clip9)">
<path style=" stroke:none;fill-rule:evenodd;fill:rgb(48.235294%,48.235294%,48.235294%);fill-opacity:1;" d="M 2.886719 5.808594 C 2.65625 6.214844 2.324219 6.492188 1.898438 6.648438 C 2.128906 6.242188 2.460938 5.960938 2.886719 5.808594 Z M 2.886719 5.808594 "/>
</g>
<mask id="mask9">
  <g filter="url(#alpha)">
<rect x="0" y="0" width="49" height="34" style="fill:rgb(0%,0%,0%);fill-opacity:0.74902;stroke:none;"/>
  </g>
</mask>
<clipPath id="clip10">
  <rect x="0" y="0" width="49" height="34"/>
</clipPath>
<g id="surface32" clip-path="url(#clip10)">
<path style=" stroke:none;fill-rule:evenodd;fill:rgb(54.509804%,54.509804%,54.509804%);fill-opacity:1;" d="M 1.898438 6.648438 C 1.910156 6.90625 1.800781 7.074219 1.566406 7.152344 C 1.554688 6.894531 1.664062 6.726562 1.898438 6.648438 Z M 1.898438 6.648438 "/>
</g>
<mask id="mask10">
  <g filter="url(#alpha)">
<rect x="0" y="0" width="49" height="34" style="fill:rgb(0%,0%,0%);fill-opacity:0.00392157;stroke:none;"/>
  </g>
</mask>
<clipPath id="clip11">
  <rect x="0" y="0" width="49" height="34"/>
</clipPath>
<g id="surface35" clip-path="url(#clip11)">
<path style=" stroke:none;fill-rule:evenodd;fill:rgb(83.137255%,83.137255%,83.137255%);fill-opacity:1;" d="M 3.546875 7.152344 C 3.46875 7.390625 3.304688 7.503906 3.050781 7.488281 C 3.128906 7.253906 3.296875 7.140625 3.546875 7.152344 Z M 3.546875 7.152344 "/>
</g>
<mask id="mask11">
  <g filter="url(#alpha)">
<rect x="0" y="0" width="49" height="34" style="fill:rgb(0%,0%,0%);fill-opacity:0.0117647;stroke:none;"/>
  </g>
</mask>
<clipPath id="clip12">
  <rect x="0" y="0" width="49" height="34"/>
</clipPath>
<g id="surface38" clip-path="url(#clip12)">
<path style=" stroke:none;fill-rule:evenodd;fill:rgb(99.607843%,93.72549%,85.490196%);fill-opacity:1;" d="M 24.171875 12.203125 C 24.378906 12.609375 24.488281 13.054688 24.5 13.550781 C 24.246094 13.15625 24.136719 12.707031 24.171875 12.203125 Z M 24.171875 12.203125 "/>
</g>
<mask id="mask12">
  <g filter="url(#alpha)">
<rect x="0" y="0" width="49" height="34" style="fill:rgb(0%,0%,0%);fill-opacity:0.862745;stroke:none;"/>
  </g>
</mask>
<clipPath id="clip13">
  <rect x="0" y="0" width="49" height="34"/>
</clipPath>
<g id="surface41" clip-path="url(#clip13)">
<path style=" stroke:none;fill-rule:evenodd;fill:rgb(50.588235%,50.588235%,50.588235%);fill-opacity:1;" d="M 9.816406 13.71875 C 9.878906 14.085938 9.769531 14.367188 9.488281 14.558594 C 9.535156 14.238281 9.644531 13.957031 9.816406 13.71875 Z M 9.816406 13.71875 "/>
</g>
<mask id="mask13">
  <g filter="url(#alpha)">
<rect x="0" y="0" width="49" height="34" style="fill:rgb(0%,0%,0%);fill-opacity:0.729412;stroke:none;"/>
  </g>
</mask>
<clipPath id="clip14">
  <rect x="0" y="0" width="49" height="34"/>
</clipPath>
<g id="surface44" clip-path="url(#clip14)">
<path style=" stroke:none;fill-rule:evenodd;fill:rgb(53.72549%,53.72549%,53.72549%);fill-opacity:1;" d="M 15.589844 14.558594 C 15.511719 14.796875 15.347656 14.910156 15.097656 14.894531 C 15.175781 14.660156 15.339844 14.546875 15.589844 14.558594 Z M 15.589844 14.558594 "/>
</g>
<mask id="mask14">
  <g filter="url(#alpha)">
<rect x="0" y="0" width="49" height="34" style="fill:rgb(0%,0%,0%);fill-opacity:0.247059;stroke:none;"/>
  </g>
</mask>
<clipPath id="clip15">
  <rect x="0" y="0" width="49" height="34"/>
</clipPath>
<g id="surface47" clip-path="url(#clip15)">
<path style=" stroke:none;fill-rule:evenodd;fill:rgb(69.803922%,69.803922%,69.803922%);fill-opacity:1;" d="M 9.488281 14.726562 C 9.5 14.984375 9.386719 15.152344 9.15625 15.234375 C 9.144531 14.976562 9.253906 14.808594 9.488281 14.726562 Z M 9.488281 14.726562 "/>
</g>
<mask id="mask15">
  <g filter="url(#alpha)">
<rect x="0" y="0" width="49" height="34" style="fill:rgb(0%,0%,0%);fill-opacity:0.345098;stroke:none;"/>
  </g>
</mask>
<clipPath id="clip16">
  <rect x="0" y="0" width="49" height="34"/>
</clipPath>
<g id="surface50" clip-path="url(#clip16)">
<path style=" stroke:none;fill-rule:evenodd;fill:rgb(70.196078%,70.196078%,70.196078%);fill-opacity:1;" d="M 18.394531 14.894531 C 18.628906 14.976562 18.738281 15.144531 18.726562 15.402344 C 18.492188 15.320312 18.382812 15.152344 18.394531 14.894531 Z M 18.394531 14.894531 "/>
</g>
<mask id="mask16">
  <g filter="url(#alpha)">
<rect x="0" y="0" width="49" height="34" style="fill:rgb(0%,0%,0%);fill-opacity:0.0196078;stroke:none;"/>
  </g>
</mask>
<clipPath id="clip17">
  <rect x="0" y="0" width="49" height="34"/>
</clipPath>
<g id="surface53" clip-path="url(#clip17)">
<path style=" stroke:none;fill-rule:evenodd;fill:rgb(97.254902%,92.156863%,84.705882%);fill-opacity:1;" d="M 37.535156 15.570312 C 37.644531 15.570312 37.699219 15.625 37.699219 15.738281 C 37.515625 15.921875 37.296875 16.035156 37.039062 16.074219 C 37.148438 15.851562 37.3125 15.679688 37.535156 15.570312 Z M 37.535156 15.570312 "/>
</g>
<mask id="mask17">
  <g filter="url(#alpha)">
<rect x="0" y="0" width="49" height="34" style="fill:rgb(0%,0%,0%);fill-opacity:0.658824;stroke:none;"/>
  </g>
</mask>
<clipPath id="clip18">
  <rect x="0" y="0" width="49" height="34"/>
</clipPath>
<g id="surface56" clip-path="url(#clip18)">
<path style=" stroke:none;fill-rule:evenodd;fill:rgb(53.333333%,53.333333%,53.333333%);fill-opacity:1;" d="M 8.992188 15.570312 C 8.953125 15.890625 8.789062 16.113281 8.496094 16.242188 C 8.535156 15.921875 8.699219 15.699219 8.992188 15.570312 Z M 8.992188 15.570312 "/>
</g>
<mask id="mask18">
  <g filter="url(#alpha)">
<rect x="0" y="0" width="49" height="34" style="fill:rgb(0%,0%,0%);fill-opacity:0.32549;stroke:none;"/>
  </g>
</mask>
<clipPath id="clip19">
  <rect x="0" y="0" width="49" height="34"/>
</clipPath>
<g id="surface59" clip-path="url(#clip19)">
<path style=" stroke:none;fill-rule:evenodd;fill:rgb(69.803922%,69.803922%,69.803922%);fill-opacity:1;" d="M 37.699219 15.738281 C 37.949219 15.726562 38.117188 15.835938 38.195312 16.074219 C 37.941406 16.085938 37.777344 15.972656 37.699219 15.738281 Z M 37.699219 15.738281 "/>
</g>
<mask id="mask19">
  <g filter="url(#alpha)">
<rect x="0" y="0" width="49" height="34" style="fill:rgb(0%,0%,0%);fill-opacity:0.835294;stroke:none;"/>
  </g>
</mask>
<clipPath id="clip20">
  <rect x="0" y="0" width="49" height="34"/>
</clipPath>
<g id="surface62" clip-path="url(#clip20)">
<path style=" stroke:none;fill-rule:evenodd;fill:rgb(48.235294%,48.235294%,48.235294%);fill-opacity:1;" d="M 38.195312 16.074219 C 38.445312 16.0625 38.609375 16.175781 38.6875 16.410156 C 38.4375 16.421875 38.273438 16.3125 38.195312 16.074219 Z M 38.195312 16.074219 "/>
</g>
<mask id="mask20">
  <g filter="url(#alpha)">
<rect x="0" y="0" width="49" height="34" style="fill:rgb(0%,0%,0%);fill-opacity:0.643137;stroke:none;"/>
  </g>
</mask>
<clipPath id="clip21">
  <rect x="0" y="0" width="49" height="34"/>
</clipPath>
<g id="surface65" clip-path="url(#clip21)">
<path style=" stroke:none;fill-rule:evenodd;fill:rgb(52.941176%,52.941176%,52.941176%);fill-opacity:1;" d="M 3.710938 15.0625 C 3.921875 15.46875 4.03125 15.917969 4.042969 16.410156 C 3.789062 16.015625 3.679688 15.570312 3.710938 15.0625 Z M 3.710938 15.0625 "/>
</g>
<mask id="mask21">
  <g filter="url(#alpha)">
<rect x="0" y="0" width="49" height="34" style="fill:rgb(0%,0%,0%);fill-opacity:0.407843;stroke:none;"/>
  </g>
</mask>
<clipPath id="clip22">
  <rect x="0" y="0" width="49" height="34"/>
</clipPath>
<g id="surface68" clip-path="url(#clip22)">
<path style=" stroke:none;fill-rule:evenodd;fill:rgb(54.901961%,54.901961%,54.901961%);fill-opacity:1;" d="M 14.4375 16.242188 C 14.4375 16.46875 14.4375 16.691406 14.4375 16.914062 C 14.65625 16.914062 14.875 16.914062 15.097656 16.914062 C 14.863281 17.074219 14.585938 17.132812 14.269531 17.085938 C 14.222656 16.761719 14.277344 16.480469 14.4375 16.242188 Z M 14.4375 16.242188 "/>
</g>
<mask id="mask22">
  <g filter="url(#alpha)">
<rect x="0" y="0" width="49" height="34" style="fill:rgb(0%,0%,0%);fill-opacity:0.584314;stroke:none;"/>
  </g>
</mask>
<clipPath id="clip23">
  <rect x="0" y="0" width="49" height="34"/>
</clipPath>
<g id="surface71" clip-path="url(#clip23)">
<path style=" stroke:none;fill-rule:evenodd;fill:rgb(61.568627%,61.568627%,61.568627%);fill-opacity:1;" d="M 8.167969 16.578125 C 8.070312 16.957031 7.851562 17.238281 7.507812 17.421875 C 7.601562 17.042969 7.824219 16.761719 8.167969 16.578125 Z M 8.167969 16.578125 "/>
</g>
<mask id="mask23">
  <g filter="url(#alpha)">
<rect x="0" y="0" width="49" height="34" style="fill:rgb(0%,0%,0%);fill-opacity:0.858824;stroke:none;"/>
  </g>
</mask>
<clipPath id="clip24">
  <rect x="0" y="0" width="49" height="34"/>
</clipPath>
<g id="surface74" clip-path="url(#clip24)">
<path style=" stroke:none;fill-rule:evenodd;fill:rgb(54.117647%,54.117647%,54.117647%);fill-opacity:1;" d="M 4.207031 16.746094 C 4.378906 16.988281 4.488281 17.269531 4.535156 17.589844 C 4.253906 17.398438 4.144531 17.117188 4.207031 16.746094 Z M 4.207031 16.746094 "/>
</g>
<mask id="mask24">
  <g filter="url(#alpha)">
<rect x="0" y="0" width="49" height="34" style="fill:rgb(0%,0%,0%);fill-opacity:0.627451;stroke:none;"/>
  </g>
</mask>
<clipPath id="clip25">
  <rect x="0" y="0" width="49" height="34"/>
</clipPath>
<g id="surface77" clip-path="url(#clip25)">
<path style=" stroke:none;fill-rule:evenodd;fill:rgb(54.117647%,54.117647%,54.117647%);fill-opacity:1;" d="M 7.339844 17.589844 C 7.214844 17.886719 6.996094 18.054688 6.683594 18.09375 C 6.808594 17.796875 7.027344 17.628906 7.339844 17.589844 Z M 7.339844 17.589844 "/>
</g>
<mask id="mask25">
  <g filter="url(#alpha)">
<rect x="0" y="0" width="49" height="34" style="fill:rgb(0%,0%,0%);fill-opacity:0.882353;stroke:none;"/>
  </g>
</mask>
<clipPath id="clip26">
  <rect x="0" y="0" width="49" height="34"/>
</clipPath>
<g id="surface80" clip-path="url(#clip26)">
<path style=" stroke:none;fill-rule:evenodd;fill:rgb(100%,85.098039%,65.098039%);fill-opacity:1;" d="M 28.460938 17.925781 C 29.0625 17.964844 29.613281 18.132812 30.109375 18.429688 C 29.503906 18.394531 28.957031 18.226562 28.460938 17.925781 Z M 28.460938 17.925781 "/>
</g>
<mask id="mask26">
  <g filter="url(#alpha)">
<rect x="0" y="0" width="49" height="34" style="fill:rgb(0%,0%,0%);fill-opacity:0.486275;stroke:none;"/>
  </g>
</mask>
<clipPath id="clip27">
  <rect x="0" y="0" width="49" height="34"/>
</clipPath>
<g id="surface83" clip-path="url(#clip27)">
<path style=" stroke:none;fill-rule:evenodd;fill:rgb(64.705882%,64.705882%,64.705882%);fill-opacity:1;" d="M 4.703125 18.09375 C 4.921875 18.207031 5.085938 18.375 5.195312 18.597656 C 4.867188 18.597656 4.703125 18.429688 4.703125 18.09375 Z M 4.703125 18.09375 "/>
</g>
<mask id="mask27">
  <g filter="url(#alpha)">
<rect x="0" y="0" width="49" height="34" style="fill:rgb(0%,0%,0%);fill-opacity:0.937255;stroke:none;"/>
  </g>
</mask>
<clipPath id="clip28">
  <rect x="0" y="0" width="49" height="34"/>
</clipPath>
<g id="surface86" clip-path="url(#clip28)">
<path style=" stroke:none;fill-rule:evenodd;fill:rgb(42.352941%,42.352941%,42.352941%);fill-opacity:1;" d="M 6.683594 18.09375 C 6.484375 18.511719 6.15625 18.679688 5.691406 18.597656 C 6.015625 18.433594 6.34375 18.265625 6.683594 18.09375 Z M 6.683594 18.09375 "/>
</g>
<mask id="mask28">
  <g filter="url(#alpha)">
<rect x="0" y="0" width="49" height="34" style="fill:rgb(0%,0%,0%);fill-opacity:0.00392157;stroke:none;"/>
  </g>
</mask>
<clipPath id="clip29">
  <rect x="0" y="0" width="49" height="34"/>
</clipPath>
<g id="surface89" clip-path="url(#clip29)">
<path style=" stroke:none;fill-rule:evenodd;fill:rgb(99.607843%,94.901961%,87.45098%);fill-opacity:1;" d="M 33.242188 18.261719 C 32.6875 18.519531 32.085938 18.632812 31.429688 18.597656 C 30.957031 18.597656 30.519531 18.542969 30.109375 18.429688 C 31.160156 18.457031 32.207031 18.402344 33.242188 18.261719 Z M 33.242188 18.261719 "/>
</g>
<mask id="mask29">
  <g filter="url(#alpha)">
<rect x="0" y="0" width="49" height="34" style="fill:rgb(0%,0%,0%);fill-opacity:0.729412;stroke:none;"/>
  </g>
</mask>
<clipPath id="clip30">
  <rect x="0" y="0" width="49" height="34"/>
</clipPath>
<g id="surface92" clip-path="url(#clip30)">
<path style=" stroke:none;fill-rule:evenodd;fill:rgb(57.647059%,57.647059%,57.647059%);fill-opacity:1;" d="M 26.976562 19.105469 C 27.207031 19.183594 27.316406 19.351562 27.304688 19.609375 C 27.074219 19.53125 26.960938 19.359375 26.976562 19.105469 Z M 26.976562 19.105469 "/>
</g>
<mask id="mask30">
  <g filter="url(#alpha)">
<rect x="0" y="0" width="49" height="34" style="fill:rgb(0%,0%,0%);fill-opacity:0.513725;stroke:none;"/>
  </g>
</mask>
<clipPath id="clip31">
  <rect x="0" y="0" width="49" height="34"/>
</clipPath>
<g id="surface95" clip-path="url(#clip31)">
<path style=" stroke:none;fill-rule:evenodd;fill:rgb(56.078431%,56.078431%,56.078431%);fill-opacity:1;" d="M 3.878906 19.441406 C 4.128906 19.429688 4.292969 19.539062 4.371094 19.777344 C 4.121094 19.789062 3.957031 19.675781 3.878906 19.441406 Z M 3.878906 19.441406 "/>
</g>
<mask id="mask31">
  <g filter="url(#alpha)">
<rect x="0" y="0" width="49" height="34" style="fill:rgb(0%,0%,0%);fill-opacity:0.396078;stroke:none;"/>
  </g>
</mask>
<clipPath id="clip32">
  <rect x="0" y="0" width="49" height="34"/>
</clipPath>
<g id="surface98" clip-path="url(#clip32)">
<path style=" stroke:none;fill-rule:evenodd;fill:rgb(69.411765%,69.411765%,69.411765%);fill-opacity:1;" d="M 20.375 19.441406 C 20.320312 19.609375 20.210938 19.722656 20.046875 19.777344 C 20.046875 19.554688 20.15625 19.441406 20.375 19.441406 Z M 20.375 19.441406 "/>
</g>
<mask id="mask32">
  <g filter="url(#alpha)">
<rect x="0" y="0" width="49" height="34" style="fill:rgb(0%,0%,0%);fill-opacity:0.552941;stroke:none;"/>
  </g>
</mask>
<clipPath id="clip33">
  <rect x="0" y="0" width="49" height="34"/>
</clipPath>
<g id="surface101" clip-path="url(#clip33)">
<path style=" stroke:none;fill-rule:evenodd;fill:rgb(61.176471%,61.176471%,61.176471%);fill-opacity:1;" d="M 22.191406 19.441406 C 22.796875 19.554688 23.398438 19.664062 24.003906 19.777344 C 23.179688 19.804688 22.351562 19.777344 21.53125 19.691406 C 21.707031 19.492188 21.925781 19.410156 22.191406 19.441406 Z M 22.191406 19.441406 "/>
</g>
<mask id="mask33">
  <g filter="url(#alpha)">
<rect x="0" y="0" width="49" height="34" style="fill:rgb(0%,0%,0%);fill-opacity:0.639216;stroke:none;"/>
  </g>
</mask>
<clipPath id="clip34">
  <rect x="0" y="0" width="49" height="34"/>
</clipPath>
<g id="surface104" clip-path="url(#clip34)">
<path style=" stroke:none;fill-rule:evenodd;fill:rgb(54.509804%,54.509804%,54.509804%);fill-opacity:1;" d="M 19.878906 20.957031 C 20.203125 21.046875 20.367188 21.269531 20.375 21.628906 C 20.132812 21.472656 19.96875 21.246094 19.878906 20.957031 Z M 19.878906 20.957031 "/>
</g>
<mask id="mask34">
  <g filter="url(#alpha)">
<rect x="0" y="0" width="49" height="34" style="fill:rgb(0%,0%,0%);fill-opacity:0.772549;stroke:none;"/>
  </g>
</mask>
<clipPath id="clip35">
  <rect x="0" y="0" width="49" height="34"/>
</clipPath>
<g id="surface107" clip-path="url(#clip35)">
<path style=" stroke:none;fill-rule:evenodd;fill:rgb(52.941176%,52.941176%,52.941176%);fill-opacity:1;" d="M 32.417969 21.292969 C 32.339844 21.527344 32.175781 21.640625 31.925781 21.628906 C 32.003906 21.390625 32.167969 21.28125 32.417969 21.292969 Z M 32.417969 21.292969 "/>
</g>
<mask id="mask35">
  <g filter="url(#alpha)">
<rect x="0" y="0" width="49" height="34" style="fill:rgb(0%,0%,0%);fill-opacity:0.494118;stroke:none;"/>
  </g>
</mask>
<clipPath id="clip36">
  <rect x="0" y="0" width="49" height="34"/>
</clipPath>
<g id="surface110" clip-path="url(#clip36)">
<path style=" stroke:none;fill-rule:evenodd;fill:rgb(58.823529%,58.823529%,58.823529%);fill-opacity:1;" d="M 20.375 21.628906 C 20.628906 21.617188 20.792969 21.730469 20.871094 21.964844 C 20.617188 21.976562 20.453125 21.867188 20.375 21.628906 Z M 20.375 21.628906 "/>
</g>
<mask id="mask36">
  <g filter="url(#alpha)">
<rect x="0" y="0" width="49" height="34" style="fill:rgb(0%,0%,0%);fill-opacity:0.792157;stroke:none;"/>
  </g>
</mask>
<clipPath id="clip37">
  <rect x="0" y="0" width="49" height="34"/>
</clipPath>
<g id="surface113" clip-path="url(#clip37)">
<path style=" stroke:none;fill-rule:evenodd;fill:rgb(48.235294%,48.235294%,48.235294%);fill-opacity:1;" d="M 31.097656 22.132812 C 31.019531 22.371094 30.855469 22.484375 30.605469 22.46875 C 30.683594 22.234375 30.847656 22.121094 31.097656 22.132812 Z M 31.097656 22.132812 "/>
</g>
<mask id="mask37">
  <g filter="url(#alpha)">
<rect x="0" y="0" width="49" height="34" style="fill:rgb(0%,0%,0%);fill-opacity:0.321569;stroke:none;"/>
  </g>
</mask>
<clipPath id="clip38">
  <rect x="0" y="0" width="49" height="34"/>
</clipPath>
<g id="surface116" clip-path="url(#clip38)">
<path style=" stroke:none;fill-rule:evenodd;fill:rgb(64.705882%,64.705882%,64.705882%);fill-opacity:1;" d="M 37.535156 22.808594 C 37.785156 22.792969 37.949219 22.90625 38.027344 23.144531 C 37.777344 23.15625 37.613281 23.042969 37.535156 22.808594 Z M 37.535156 22.808594 "/>
</g>
<mask id="mask38">
  <g filter="url(#alpha)">
<rect x="0" y="0" width="49" height="34" style="fill:rgb(0%,0%,0%);fill-opacity:0.00784314;stroke:none;"/>
  </g>
</mask>
<clipPath id="clip39">
  <rect x="0" y="0" width="49" height="34"/>
</clipPath>
<g id="surface119" clip-path="url(#clip39)">
<path style=" stroke:none;fill-rule:evenodd;fill:rgb(72.156863%,72.156863%,72.156863%);fill-opacity:1;" d="M 40.171875 22.976562 C 40.503906 22.976562 40.667969 23.144531 40.667969 23.480469 C 40.449219 23.367188 40.285156 23.199219 40.171875 22.976562 Z M 40.171875 22.976562 "/>
</g>
<mask id="mask39">
  <g filter="url(#alpha)">
<rect x="0" y="0" width="49" height="34" style="fill:rgb(0%,0%,0%);fill-opacity:0.588235;stroke:none;"/>
  </g>
</mask>
<clipPath id="clip40">
  <rect x="0" y="0" width="49" height="34"/>
</clipPath>
<g id="surface122" clip-path="url(#clip40)">
<path style=" stroke:none;fill-rule:evenodd;fill:rgb(70.588235%,70.588235%,70.588235%);fill-opacity:1;" d="M 23.015625 23.3125 C 23.269531 23.367188 23.378906 23.535156 23.34375 23.816406 C 23.195312 23.683594 23.085938 23.515625 23.015625 23.3125 Z M 23.015625 23.3125 "/>
</g>
<mask id="mask40">
  <g filter="url(#alpha)">
<rect x="0" y="0" width="49" height="34" style="fill:rgb(0%,0%,0%);fill-opacity:0.721569;stroke:none;"/>
  </g>
</mask>
<clipPath id="clip41">
  <rect x="0" y="0" width="49" height="34"/>
</clipPath>
<g id="surface125" clip-path="url(#clip41)">
<path style=" stroke:none;fill-rule:evenodd;fill:rgb(60%,60%,60%);fill-opacity:1;" d="M 38.359375 23.3125 C 38.671875 23.351562 38.894531 23.519531 39.019531 23.816406 C 38.703125 23.777344 38.484375 23.609375 38.359375 23.3125 Z M 38.359375 23.3125 "/>
</g>
<mask id="mask41">
  <g filter="url(#alpha)">
<rect x="0" y="0" width="49" height="34" style="fill:rgb(0%,0%,0%);fill-opacity:0.486275;stroke:none;"/>
  </g>
</mask>
<clipPath id="clip42">
  <rect x="0" y="0" width="49" height="34"/>
</clipPath>
<g id="surface128" clip-path="url(#clip42)">
<path style=" stroke:none;fill-rule:evenodd;fill:rgb(56.470588%,56.470588%,56.470588%);fill-opacity:1;" d="M 29.78125 23.3125 C 29.792969 23.570312 29.679688 23.738281 29.449219 23.816406 C 29.4375 23.558594 29.546875 23.390625 29.78125 23.3125 Z M 29.78125 23.3125 "/>
</g>
<mask id="mask42">
  <g filter="url(#alpha)">
<rect x="0" y="0" width="49" height="34" style="fill:rgb(0%,0%,0%);fill-opacity:0.447059;stroke:none;"/>
  </g>
</mask>
<clipPath id="clip43">
  <rect x="0" y="0" width="49" height="34"/>
</clipPath>
<g id="surface131" clip-path="url(#clip43)">
<path style=" stroke:none;fill-rule:evenodd;fill:rgb(57.647059%,57.647059%,57.647059%);fill-opacity:1;" d="M 29.449219 23.816406 C 29.460938 24.074219 29.351562 24.242188 29.121094 24.320312 C 29.109375 24.066406 29.21875 23.894531 29.449219 23.816406 Z M 29.449219 23.816406 "/>
</g>
<mask id="mask43">
  <g filter="url(#alpha)">
<rect x="0" y="0" width="49" height="34" style="fill:rgb(0%,0%,0%);fill-opacity:0.407843;stroke:none;"/>
  </g>
</mask>
<clipPath id="clip44">
  <rect x="0" y="0" width="49" height="34"/>
</clipPath>
<g id="surface134" clip-path="url(#clip44)">
<path style=" stroke:none;fill-rule:evenodd;fill:rgb(66.666667%,66.666667%,66.666667%);fill-opacity:1;" d="M 41 23.816406 C 41.230469 23.894531 41.339844 24.066406 41.328125 24.320312 C 41.097656 24.242188 40.984375 24.074219 41 23.816406 Z M 41 23.816406 "/>
</g>
<mask id="mask44">
  <g filter="url(#alpha)">
<rect x="0" y="0" width="49" height="34" style="fill:rgb(0%,0%,0%);fill-opacity:0.756863;stroke:none;"/>
  </g>
</mask>
<clipPath id="clip45">
  <rect x="0" y="0" width="49" height="34"/>
</clipPath>
<g id="surface137" clip-path="url(#clip45)">
<path style=" stroke:none;fill-rule:evenodd;fill:rgb(49.803922%,49.803922%,49.803922%);fill-opacity:1;" d="M 8.992188 24.152344 C 8.914062 24.390625 8.75 24.503906 8.496094 24.488281 C 8.574219 24.253906 8.738281 24.140625 8.992188 24.152344 Z M 8.992188 24.152344 "/>
</g>
<mask id="mask45">
  <g filter="url(#alpha)">
<rect x="0" y="0" width="49" height="34" style="fill:rgb(0%,0%,0%);fill-opacity:0.415686;stroke:none;"/>
  </g>
</mask>
<clipPath id="clip46">
  <rect x="0" y="0" width="49" height="34"/>
</clipPath>
<g id="surface140" clip-path="url(#clip46)">
<path style=" stroke:none;fill-rule:evenodd;fill:rgb(64.313725%,64.313725%,64.313725%);fill-opacity:1;" d="M 15.921875 24.488281 C 16.171875 24.476562 16.335938 24.589844 16.414062 24.828125 C 16.164062 24.839844 16 24.726562 15.921875 24.488281 Z M 15.921875 24.488281 "/>
</g>
<mask id="mask46">
  <g filter="url(#alpha)">
<rect x="0" y="0" width="49" height="34" style="fill:rgb(0%,0%,0%);fill-opacity:0.411765;stroke:none;"/>
  </g>
</mask>
<clipPath id="clip47">
  <rect x="0" y="0" width="49" height="34"/>
</clipPath>
<g id="surface143" clip-path="url(#clip47)">
<path style=" stroke:none;fill-rule:evenodd;fill:rgb(65.098039%,65.098039%,65.098039%);fill-opacity:1;" d="M 16.414062 24.828125 C 16.667969 24.8125 16.832031 24.925781 16.910156 25.164062 C 16.660156 25.175781 16.492188 25.0625 16.414062 24.828125 Z M 16.414062 24.828125 "/>
</g>
<mask id="mask47">
  <g filter="url(#alpha)">
<rect x="0" y="0" width="49" height="34" style="fill:rgb(0%,0%,0%);fill-opacity:0.537255;stroke:none;"/>
  </g>
</mask>
<clipPath id="clip48">
  <rect x="0" y="0" width="49" height="34"/>
</clipPath>
<g id="surface146" clip-path="url(#clip48)">
<path style=" stroke:none;fill-rule:evenodd;fill:rgb(55.686275%,55.686275%,55.686275%);fill-opacity:1;" d="M 23.839844 24.996094 C 23.949219 24.996094 24.058594 24.996094 24.171875 24.996094 C 24.132812 25.632812 24.019531 25.632812 23.839844 24.996094 Z M 23.839844 24.996094 "/>
</g>
<mask id="mask48">
  <g filter="url(#alpha)">
<rect x="0" y="0" width="49" height="34" style="fill:rgb(0%,0%,0%);fill-opacity:0.329412;stroke:none;"/>
  </g>
</mask>
<clipPath id="clip49">
  <rect x="0" y="0" width="49" height="34"/>
</clipPath>
<g id="surface149" clip-path="url(#clip49)">
<path style=" stroke:none;fill-rule:evenodd;fill:rgb(68.627451%,68.627451%,68.627451%);fill-opacity:1;" d="M 18.890625 25.164062 C 19.121094 25.242188 19.234375 25.410156 19.21875 25.667969 C 18.988281 25.589844 18.878906 25.421875 18.890625 25.164062 Z M 18.890625 25.164062 "/>
</g>
<mask id="mask49">
  <g filter="url(#alpha)">
<rect x="0" y="0" width="49" height="34" style="fill:rgb(0%,0%,0%);fill-opacity:0.541176;stroke:none;"/>
  </g>
</mask>
<clipPath id="clip50">
  <rect x="0" y="0" width="49" height="34"/>
</clipPath>
<g id="surface152" clip-path="url(#clip50)">
<path style=" stroke:none;fill-rule:evenodd;fill:rgb(54.509804%,54.509804%,54.509804%);fill-opacity:1;" d="M 7.671875 25.332031 C 7.683594 25.589844 7.574219 25.757812 7.339844 25.835938 C 7.328125 25.578125 7.441406 25.410156 7.671875 25.332031 Z M 7.671875 25.332031 "/>
</g>
<mask id="mask50">
  <g filter="url(#alpha)">
<rect x="0" y="0" width="49" height="34" style="fill:rgb(0%,0%,0%);fill-opacity:0.0784314;stroke:none;"/>
  </g>
</mask>
<clipPath id="clip51">
  <rect x="0" y="0" width="49" height="34"/>
</clipPath>
<g id="surface155" clip-path="url(#clip51)">
<path style=" stroke:none;fill-rule:evenodd;fill:rgb(85.490196%,85.490196%,85.490196%);fill-opacity:1;" d="M 33.574219 26.339844 C 33.5 26.171875 33.390625 26.171875 33.242188 26.339844 C 33.230469 26.089844 33.339844 25.921875 33.574219 25.835938 C 33.785156 26.023438 33.785156 26.191406 33.574219 26.339844 Z M 33.574219 26.339844 "/>
</g>
<mask id="mask51">
  <g filter="url(#alpha)">
<rect x="0" y="0" width="49" height="34" style="fill:rgb(0%,0%,0%);fill-opacity:0.85098;stroke:none;"/>
  </g>
</mask>
<clipPath id="clip52">
  <rect x="0" y="0" width="49" height="34"/>
</clipPath>
<g id="surface158" clip-path="url(#clip52)">
<path style=" stroke:none;fill-rule:evenodd;fill:rgb(48.627451%,48.627451%,48.627451%);fill-opacity:1;" d="M 7.339844 25.835938 C 7.300781 26.15625 7.136719 26.382812 6.847656 26.511719 C 6.886719 26.1875 7.050781 25.964844 7.339844 25.835938 Z M 7.339844 25.835938 "/>
</g>
<mask id="mask52">
  <g filter="url(#alpha)">
<rect x="0" y="0" width="49" height="34" style="fill:rgb(0%,0%,0%);fill-opacity:0.686275;stroke:none;"/>
  </g>
</mask>
<clipPath id="clip53">
  <rect x="0" y="0" width="49" height="34"/>
</clipPath>
<g id="surface161" clip-path="url(#clip53)">
<path style=" stroke:none;fill-rule:evenodd;fill:rgb(44.705882%,44.705882%,44.705882%);fill-opacity:1;" d="M 28.789062 24.996094 C 28.804688 25.441406 28.695312 25.835938 28.460938 26.171875 C 28.445312 25.726562 28.554688 25.335938 28.789062 24.996094 Z M 28.789062 24.996094 "/>
</g>
<mask id="mask53">
  <g filter="url(#alpha)">
<rect x="0" y="0" width="49" height="34" style="fill:rgb(0%,0%,0%);fill-opacity:0.00392157;stroke:none;"/>
  </g>
</mask>
<clipPath id="clip54">
  <rect x="0" y="0" width="49" height="34"/>
</clipPath>
<g id="surface164" clip-path="url(#clip54)">
<path style=" stroke:none;fill-rule:evenodd;fill:rgb(77.647059%,77.647059%,77.647059%);fill-opacity:1;" d="M 8.828125 26.171875 C 8.839844 26.429688 8.730469 26.597656 8.496094 26.679688 C 8.484375 26.421875 8.59375 26.253906 8.828125 26.171875 Z M 8.828125 26.171875 "/>
</g>
<mask id="mask54">
  <g filter="url(#alpha)">
<rect x="0" y="0" width="49" height="34" style="fill:rgb(0%,0%,0%);fill-opacity:0.843137;stroke:none;"/>
  </g>
</mask>
<clipPath id="clip55">
  <rect x="0" y="0" width="49" height="34"/>
</clipPath>
<g id="surface167" clip-path="url(#clip55)">
<path style=" stroke:none;fill-rule:evenodd;fill:rgb(32.156863%,32.156863%,32.156863%);fill-opacity:1;" d="M 41.988281 26.339844 C 43.734375 26.507812 45.496094 26.5625 47.269531 26.511719 C 47.269531 27.015625 47.269531 27.519531 47.269531 28.023438 C 45.398438 28.023438 43.527344 28.023438 41.660156 28.023438 C 43.445312 27.855469 45.257812 27.800781 47.101562 27.855469 C 47.101562 27.464844 47.101562 27.070312 47.101562 26.679688 C 45.332031 26.785156 43.628906 26.675781 41.988281 26.339844 Z M 41.988281 26.339844 "/>
</g>
<mask id="mask55">
  <g filter="url(#alpha)">
<rect x="0" y="0" width="49" height="34" style="fill:rgb(0%,0%,0%);fill-opacity:0.0156863;stroke:none;"/>
  </g>
</mask>
<clipPath id="clip56">
  <rect x="0" y="0" width="49" height="34"/>
</clipPath>
<g id="surface170" clip-path="url(#clip56)">
<path style=" stroke:none;fill-rule:evenodd;fill:rgb(81.176471%,81.176471%,81.176471%);fill-opacity:1;" d="M 37.699219 26.003906 C 37.539062 26.300781 37.484375 26.636719 37.535156 27.015625 C 37.347656 26.601562 37.320312 26.152344 37.453125 25.667969 C 37.570312 25.761719 37.652344 25.871094 37.699219 26.003906 Z M 37.699219 26.003906 "/>
</g>
<mask id="mask56">
  <g filter="url(#alpha)">
<rect x="0" y="0" width="49" height="34" style="fill:rgb(0%,0%,0%);fill-opacity:0.0235294;stroke:none;"/>
  </g>
</mask>
<clipPath id="clip57">
  <rect x="0" y="0" width="49" height="34"/>
</clipPath>
<g id="surface173" clip-path="url(#clip57)">
<path style=" stroke:none;fill-rule:evenodd;fill:rgb(92.941176%,92.941176%,92.941176%);fill-opacity:1;" d="M 28.460938 26.339844 C 28.460938 26.621094 28.460938 26.902344 28.460938 27.183594 C 28.183594 27.183594 27.910156 27.183594 27.632812 27.183594 C 27.8125 27.027344 28.03125 26.96875 28.292969 27.015625 C 28.25 26.746094 28.304688 26.519531 28.460938 26.339844 Z M 28.460938 26.339844 "/>
</g>
<mask id="mask57">
  <g filter="url(#alpha)">
<rect x="0" y="0" width="49" height="34" style="fill:rgb(0%,0%,0%);fill-opacity:0.364706;stroke:none;"/>
  </g>
</mask>
<clipPath id="clip58">
  <rect x="0" y="0" width="49" height="34"/>
</clipPath>
<g id="surface176" clip-path="url(#clip58)">
<path style=" stroke:none;fill-rule:evenodd;fill:rgb(61.568627%,61.568627%,61.568627%);fill-opacity:1;" d="M 33.078125 26.679688 C 33.089844 26.933594 32.980469 27.105469 32.75 27.183594 C 32.738281 26.925781 32.847656 26.757812 33.078125 26.679688 Z M 33.078125 26.679688 "/>
</g>
<mask id="mask58">
  <g filter="url(#alpha)">
<rect x="0" y="0" width="49" height="34" style="fill:rgb(0%,0%,0%);fill-opacity:0.380392;stroke:none;"/>
  </g>
</mask>
<clipPath id="clip59">
  <rect x="0" y="0" width="49" height="34"/>
</clipPath>
<g id="surface179" clip-path="url(#clip59)">
<path style=" stroke:none;fill-rule:evenodd;fill:rgb(59.215686%,59.215686%,59.215686%);fill-opacity:1;" d="M 19.550781 26.339844 C 19.816406 26.792969 19.925781 27.296875 19.878906 27.855469 C 19.691406 27.390625 19.578125 26.882812 19.550781 26.339844 Z M 19.550781 26.339844 "/>
</g>
<mask id="mask59">
  <g filter="url(#alpha)">
<rect x="0" y="0" width="49" height="34" style="fill:rgb(0%,0%,0%);fill-opacity:0.603922;stroke:none;"/>
  </g>
</mask>
<clipPath id="clip60">
  <rect x="0" y="0" width="49" height="34"/>
</clipPath>
<g id="surface182" clip-path="url(#clip60)">
<path style=" stroke:none;fill-rule:evenodd;fill:rgb(65.490196%,65.490196%,65.490196%);fill-opacity:1;" d="M 15.097656 27.855469 C 14.816406 27.660156 14.703125 27.773438 14.765625 28.191406 C 14.554688 27.933594 14.554688 27.652344 14.765625 27.351562 C 15 27.4375 15.109375 27.605469 15.097656 27.855469 Z M 15.097656 27.855469 "/>
</g>
<mask id="mask60">
  <g filter="url(#alpha)">
<rect x="0" y="0" width="49" height="34" style="fill:rgb(0%,0%,0%);fill-opacity:0.694118;stroke:none;"/>
  </g>
</mask>
<clipPath id="clip61">
  <rect x="0" y="0" width="49" height="34"/>
</clipPath>
<g id="surface185" clip-path="url(#clip61)">
<path style=" stroke:none;fill-rule:evenodd;fill:rgb(38.823529%,38.823529%,38.823529%);fill-opacity:1;" d="M 10.804688 29.035156 C 10.695312 28.753906 10.585938 28.472656 10.476562 28.191406 C 10.46875 27.980469 10.550781 27.8125 10.722656 27.6875 C 10.804688 28.132812 10.832031 28.582031 10.804688 29.035156 Z M 10.804688 29.035156 "/>
</g>
<mask id="mask61">
  <g filter="url(#alpha)">
<rect x="0" y="0" width="49" height="34" style="fill:rgb(0%,0%,0%);fill-opacity:0.501961;stroke:none;"/>
  </g>
</mask>
<clipPath id="clip62">
  <rect x="0" y="0" width="49" height="34"/>
</clipPath>
<g id="surface188" clip-path="url(#clip62)">
<path style=" stroke:none;fill-rule:evenodd;fill:rgb(72.941176%,72.941176%,72.941176%);fill-opacity:1;" d="M 28.625 28.53125 C 28.84375 28.53125 28.953125 28.640625 28.953125 28.867188 C 28.789062 28.808594 28.679688 28.699219 28.625 28.53125 Z M 28.625 28.53125 "/>
</g>
<mask id="mask62">
  <g filter="url(#alpha)">
<rect x="0" y="0" width="49" height="34" style="fill:rgb(0%,0%,0%);fill-opacity:0.12549;stroke:none;"/>
  </g>
</mask>
<clipPath id="clip63">
  <rect x="0" y="0" width="49" height="34"/>
</clipPath>
<g id="surface191" clip-path="url(#clip63)">
<path style=" stroke:none;fill-rule:evenodd;fill:rgb(82.352941%,82.352941%,82.352941%);fill-opacity:1;" d="M 32.585938 28.191406 C 32.585938 28.472656 32.585938 28.753906 32.585938 29.035156 C 32.109375 29.085938 31.667969 29.03125 31.265625 28.867188 C 31.667969 29.03125 32.109375 29.085938 32.585938 29.035156 C 32.585938 28.753906 32.585938 28.472656 32.585938 28.191406 Z M 32.585938 28.191406 "/>
</g>
<mask id="mask63">
  <g filter="url(#alpha)">
<rect x="0" y="0" width="49" height="34" style="fill:rgb(0%,0%,0%);fill-opacity:0.956863;stroke:none;"/>
  </g>
</mask>
<clipPath id="clip64">
  <rect x="0" y="0" width="49" height="34"/>
</clipPath>
<g id="surface194" clip-path="url(#clip64)">
<path style=" stroke:none;fill-rule:evenodd;fill:rgb(45.882353%,45.882353%,45.882353%);fill-opacity:1;" d="M 33.738281 28.53125 C 33.84375 28.902344 34.0625 29.183594 34.398438 29.371094 C 33.835938 29.390625 33.617188 29.109375 33.738281 28.53125 Z M 33.738281 28.53125 "/>
</g>
<mask id="mask64">
  <g filter="url(#alpha)">
<rect x="0" y="0" width="49" height="34" style="fill:rgb(0%,0%,0%);fill-opacity:0.623529;stroke:none;"/>
  </g>
</mask>
<clipPath id="clip65">
  <rect x="0" y="0" width="49" height="34"/>
</clipPath>
<g id="surface197" clip-path="url(#clip65)">
<path style=" stroke:none;fill-rule:evenodd;fill:rgb(56.078431%,56.078431%,56.078431%);fill-opacity:1;" d="M 18.066406 28.867188 C 18.011719 29.257812 17.789062 29.484375 17.40625 29.539062 C 17.570312 29.257812 17.789062 29.035156 18.066406 28.867188 Z M 18.066406 28.867188 "/>
</g>
<mask id="mask65">
  <g filter="url(#alpha)">
<rect x="0" y="0" width="49" height="34" style="fill:rgb(0%,0%,0%);fill-opacity:0.0901961;stroke:none;"/>
  </g>
</mask>
<clipPath id="clip66">
  <rect x="0" y="0" width="49" height="34"/>
</clipPath>
<g id="surface200" clip-path="url(#clip66)">
<path style=" stroke:none;fill-rule:evenodd;fill:rgb(67.843137%,67.843137%,67.843137%);fill-opacity:1;" d="M 20.871094 29.203125 C 20.394531 29.328125 19.898438 29.441406 19.386719 29.539062 C 19.796875 29.222656 20.289062 29.109375 20.871094 29.203125 Z M 20.871094 29.203125 "/>
</g>
<mask id="mask66">
  <g filter="url(#alpha)">
<rect x="0" y="0" width="49" height="34" style="fill:rgb(0%,0%,0%);fill-opacity:0.00392157;stroke:none;"/>
  </g>
</mask>
<clipPath id="clip67">
  <rect x="0" y="0" width="49" height="34"/>
</clipPath>
<g id="surface203" clip-path="url(#clip67)">
<path style=" stroke:none;fill-rule:evenodd;fill:rgb(72.941176%,72.941176%,72.941176%);fill-opacity:1;" d="M 29.121094 29.035156 C 29.339844 29.148438 29.503906 29.316406 29.613281 29.539062 C 29.285156 29.539062 29.121094 29.371094 29.121094 29.035156 Z M 29.121094 29.035156 "/>
</g>
<mask id="mask67">
  <g filter="url(#alpha)">
<rect x="0" y="0" width="49" height="34" style="fill:rgb(0%,0%,0%);fill-opacity:0.803922;stroke:none;"/>
  </g>
</mask>
<clipPath id="clip68">
  <rect x="0" y="0" width="49" height="34"/>
</clipPath>
<g id="surface206" clip-path="url(#clip68)">
<path style=" stroke:none;fill-rule:evenodd;fill:rgb(57.647059%,57.647059%,57.647059%);fill-opacity:1;" d="M 36.214844 29.035156 C 36.027344 29.324219 35.75 29.433594 35.390625 29.371094 C 35.625 29.195312 35.898438 29.085938 36.214844 29.035156 Z M 36.214844 29.035156 "/>
</g>
<mask id="mask68">
  <g filter="url(#alpha)">
<rect x="0" y="0" width="49" height="34" style="fill:rgb(0%,0%,0%);fill-opacity:0.756863;stroke:none;"/>
  </g>
</mask>
<clipPath id="clip69">
  <rect x="0" y="0" width="49" height="34"/>
</clipPath>
<g id="surface209" clip-path="url(#clip69)">
<path style=" stroke:none;fill-rule:evenodd;fill:rgb(58.431373%,58.431373%,58.431373%);fill-opacity:1;" d="M 7.835938 29.707031 C 8.058594 29.820312 8.222656 29.988281 8.332031 30.210938 C 8 30.210938 7.835938 30.042969 7.835938 29.707031 Z M 7.835938 29.707031 "/>
</g>
<mask id="mask69">
  <g filter="url(#alpha)">
<rect x="0" y="0" width="49" height="34" style="fill:rgb(0%,0%,0%);fill-opacity:0.803922;stroke:none;"/>
  </g>
</mask>
<clipPath id="clip70">
  <rect x="0" y="0" width="49" height="34"/>
</clipPath>
<g id="surface212" clip-path="url(#clip70)">
<path style=" stroke:none;fill-rule:evenodd;fill:rgb(49.803922%,49.803922%,49.803922%);fill-opacity:1;" d="M 15.921875 29.371094 C 16.070312 29.492188 16.125 29.660156 16.085938 29.875 C 16.25 29.875 16.414062 29.875 16.582031 29.875 C 16.40625 30.035156 16.183594 30.089844 15.921875 30.042969 C 15.921875 29.820312 15.921875 29.59375 15.921875 29.371094 Z M 15.921875 29.371094 "/>
</g>
<mask id="mask70">
  <g filter="url(#alpha)">
<rect x="0" y="0" width="49" height="34" style="fill:rgb(0%,0%,0%);fill-opacity:0.0627451;stroke:none;"/>
  </g>
</mask>
<clipPath id="clip71">
  <rect x="0" y="0" width="49" height="34"/>
</clipPath>
<g id="surface215" clip-path="url(#clip71)">
<path style=" stroke:none;fill-rule:evenodd;fill:rgb(78.823529%,78.823529%,78.823529%);fill-opacity:1;" d="M 6.351562 29.707031 C 6.5 29.828125 6.554688 29.996094 6.515625 30.210938 C 6.351562 30.210938 6.1875 30.210938 6.023438 30.210938 C 6.195312 30.089844 6.304688 29.921875 6.351562 29.707031 Z M 6.351562 29.707031 "/>
</g>
<mask id="mask71">
  <g filter="url(#alpha)">
<rect x="0" y="0" width="49" height="34" style="fill:rgb(0%,0%,0%);fill-opacity:0.235294;stroke:none;"/>
  </g>
</mask>
<clipPath id="clip72">
  <rect x="0" y="0" width="49" height="34"/>
</clipPath>
<g id="surface218" clip-path="url(#clip72)">
<path style=" stroke:none;fill-rule:evenodd;fill:rgb(69.411765%,69.411765%,69.411765%);fill-opacity:1;" d="M 30.109375 29.875 C 30.363281 29.863281 30.527344 29.976562 30.605469 30.210938 C 30.351562 30.226562 30.1875 30.113281 30.109375 29.875 Z M 30.109375 29.875 "/>
</g>
<mask id="mask72">
  <g filter="url(#alpha)">
<rect x="0" y="0" width="49" height="34" style="fill:rgb(0%,0%,0%);fill-opacity:0.592157;stroke:none;"/>
  </g>
</mask>
<clipPath id="clip73">
  <rect x="0" y="0" width="49" height="34"/>
</clipPath>
<g id="surface221" clip-path="url(#clip73)">
<path style=" stroke:none;fill-rule:evenodd;fill:rgb(58.823529%,58.823529%,58.823529%);fill-opacity:1;" d="M 14.765625 30.042969 C 14.765625 30.382812 14.601562 30.550781 14.269531 30.550781 C 14.382812 30.324219 14.546875 30.15625 14.765625 30.042969 Z M 14.765625 30.042969 "/>
</g>
<mask id="mask73">
  <g filter="url(#alpha)">
<rect x="0" y="0" width="49" height="34" style="fill:rgb(0%,0%,0%);fill-opacity:0.611765;stroke:none;"/>
  </g>
</mask>
<clipPath id="clip74">
  <rect x="0" y="0" width="49" height="34"/>
</clipPath>
<g id="surface224" clip-path="url(#clip74)">
<path style=" stroke:none;fill-rule:evenodd;fill:rgb(53.72549%,53.72549%,53.72549%);fill-opacity:1;" d="M 32.75 30.382812 C 33.1875 30.367188 33.570312 30.476562 33.902344 30.71875 C 33.464844 30.734375 33.082031 30.621094 32.75 30.382812 Z M 32.75 30.382812 "/>
</g>
<mask id="mask74">
  <g filter="url(#alpha)">
<rect x="0" y="0" width="49" height="34" style="fill:rgb(0%,0%,0%);fill-opacity:0.929412;stroke:none;"/>
  </g>
</mask>
<clipPath id="clip75">
  <rect x="0" y="0" width="49" height="34"/>
</clipPath>
<g id="surface227" clip-path="url(#clip75)">
<path style=" stroke:none;fill-rule:evenodd;fill:rgb(38.823529%,38.823529%,38.823529%);fill-opacity:1;" d="M 13.941406 30.71875 C 13.675781 30.964844 13.34375 31.078125 12.953125 31.054688 C 12.695312 31.050781 12.476562 30.996094 12.292969 30.886719 C 12.847656 30.894531 13.398438 30.835938 13.941406 30.71875 Z M 13.941406 30.71875 "/>
</g>
</defs>
<g id="surface1">
<path style=" stroke:none;fill-rule:evenodd;fill:rgb(10.588235%,10.196078%,10.196078%);fill-opacity:1;" d="M 43.804688 4.292969 C 43.789062 4.738281 43.898438 5.132812 44.132812 5.46875 C 44.472656 8.703125 44.28125 11.898438 43.554688 15.0625 C 42.5625 17.882812 40.9375 18.332031 38.6875 16.410156 C 38.609375 16.175781 38.445312 16.0625 38.195312 16.074219 C 38.117188 15.835938 37.949219 15.726562 37.699219 15.738281 C 37.699219 15.625 37.644531 15.570312 37.535156 15.570312 C 36.46875 14.621094 35.617188 13.5 34.976562 12.203125 C 34.503906 10.957031 34.339844 9.664062 34.480469 8.332031 C 34.832031 7.898438 35.1875 7.898438 35.554688 8.332031 C 35.605469 10.03125 36.074219 11.601562 36.957031 13.042969 C 38 14.289062 39.238281 15.273438 40.667969 15.988281 C 40.945312 16.101562 41.21875 16.101562 41.492188 15.988281 C 41.957031 15.308594 42.257812 14.550781 42.402344 13.71875 C 43.058594 10.75 43.113281 7.773438 42.566406 4.796875 C 41.992188 4.191406 41.304688 3.769531 40.503906 3.535156 C 38.542969 2.707031 36.507812 2.367188 34.398438 2.523438 C 33.699219 2.902344 33.09375 3.40625 32.585938 4.039062 C 32.445312 4.066406 32.308594 4.097656 32.171875 4.125 C 30.296875 3.628906 28.398438 3.292969 26.480469 3.113281 C 26.019531 2.949219 25.523438 2.894531 24.996094 2.945312 C 23.109375 2.882812 21.242188 3.023438 19.386719 3.367188 C 17.128906 3.972656 14.929688 4.730469 12.785156 5.636719 C 12.324219 5.617188 11.992188 5.390625 11.796875 4.964844 C 11.671875 4.667969 11.449219 4.5 11.136719 4.460938 C 8.332031 4.515625 5.800781 5.414062 3.546875 7.152344 C 3.296875 7.140625 3.128906 7.253906 3.050781 7.488281 C 2.691406 7.890625 2.527344 8.367188 2.558594 8.921875 C 2.878906 10.984375 3.261719 13.03125 3.710938 15.0625 C 3.679688 15.570312 3.789062 16.015625 4.042969 16.410156 C 4.179688 16.46875 4.234375 16.582031 4.207031 16.746094 C 4.144531 17.117188 4.253906 17.398438 4.535156 17.589844 C 4.636719 17.738281 4.691406 17.90625 4.703125 18.09375 C 4.703125 18.429688 4.867188 18.597656 5.195312 18.597656 C 5.363281 18.597656 5.527344 18.597656 5.691406 18.597656 C 6.15625 18.679688 6.484375 18.511719 6.683594 18.09375 C 6.996094 18.054688 7.214844 17.886719 7.339844 17.589844 C 7.339844 17.476562 7.398438 17.421875 7.507812 17.421875 C 7.851562 17.238281 8.070312 16.957031 8.167969 16.578125 C 8.222656 16.410156 8.332031 16.296875 8.496094 16.242188 C 8.789062 16.113281 8.953125 15.890625 8.992188 15.570312 C 8.964844 15.402344 9.019531 15.289062 9.15625 15.234375 C 9.386719 15.152344 9.5 14.984375 9.488281 14.726562 C 9.488281 14.671875 9.488281 14.617188 9.488281 14.558594 C 9.769531 14.367188 9.878906 14.085938 9.816406 13.71875 C 9.917969 12.597656 10 11.476562 10.0625 10.351562 C 10.429688 9.980469 10.839844 9.925781 11.300781 10.183594 C 11.90625 14.476562 10.363281 17.703125 6.683594 19.863281 C 5.871094 20.222656 5.101562 20.195312 4.371094 19.777344 C 4.292969 19.539062 4.128906 19.429688 3.878906 19.441406 C 3.296875 18.703125 2.882812 17.863281 2.640625 16.914062 C 1.894531 14.265625 1.371094 11.574219 1.074219 8.835938 C 1.101562 8.445312 1.128906 8.050781 1.15625 7.660156 C 1.21875 7.414062 1.355469 7.246094 1.566406 7.152344 C 1.800781 7.074219 1.910156 6.90625 1.898438 6.648438 C 2.324219 6.492188 2.65625 6.214844 2.886719 5.808594 C 3.238281 5.394531 3.679688 5.113281 4.207031 4.964844 C 4.457031 4.976562 4.625 4.867188 4.703125 4.628906 C 5.570312 4.101562 6.503906 3.710938 7.507812 3.449219 C 7.988281 3.441406 8.429688 3.328125 8.828125 3.113281 C 10.355469 2.507812 11.730469 2.789062 12.953125 3.957031 C 13.800781 3.523438 14.679688 3.183594 15.589844 2.945312 C 16.121094 2.972656 16.5625 2.804688 16.910156 2.441406 C 17.164062 2.304688 17.441406 2.25 17.734375 2.273438 C 18.21875 2.261719 18.660156 2.148438 19.054688 1.9375 C 21.710938 1.371094 24.40625 1.285156 27.140625 1.683594 C 28.792969 1.863281 30.414062 2.171875 32.007812 2.609375 C 32.050781 2.453125 32.136719 2.34375 32.253906 2.273438 C 32.566406 2.230469 32.789062 2.0625 32.914062 1.765625 C 33.609375 1.152344 34.433594 0.875 35.390625 0.925781 C 38.015625 1.078125 40.488281 1.777344 42.8125 3.03125 C 43.246094 3.382812 43.574219 3.804688 43.804688 4.292969 Z M 43.804688 4.292969 "/>
<use xlink:href="#surface5" mask="url(#mask0)"/>
<use xlink:href="#surface8" mask="url(#mask1)"/>
<path style=" stroke:none;fill-rule:evenodd;fill:rgb(98.039216%,68.627451%,26.27451%);fill-opacity:1;" d="M 37.535156 15.570312 C 37.3125 15.679688 37.148438 15.851562 37.039062 16.074219 C 36.050781 17.28125 34.785156 18.007812 33.242188 18.261719 C 32.207031 18.402344 31.160156 18.457031 30.109375 18.429688 C 29.613281 18.132812 29.0625 17.964844 28.460938 17.925781 C 26.460938 17.105469 25.144531 15.648438 24.5 13.550781 C 24.488281 13.054688 24.378906 12.609375 24.171875 12.203125 C 23.96875 11.027344 23.996094 9.847656 24.253906 8.667969 C 24.765625 6.839844 25.453125 5.101562 26.316406 3.449219 C 26.453125 3.394531 26.507812 3.28125 26.480469 3.113281 C 28.398438 3.292969 30.296875 3.628906 32.171875 4.125 C 32.308594 4.097656 32.445312 4.066406 32.585938 4.039062 C 33.09375 3.40625 33.699219 2.902344 34.398438 2.523438 C 36.507812 2.367188 38.542969 2.707031 40.503906 3.535156 C 41.304688 3.769531 41.992188 4.191406 42.566406 4.796875 C 43.113281 7.773438 43.058594 10.75 42.402344 13.71875 C 42.257812 14.550781 41.957031 15.308594 41.492188 15.988281 C 41.21875 16.101562 40.945312 16.101562 40.667969 15.988281 C 39.238281 15.273438 38 14.289062 36.957031 13.042969 C 36.074219 11.601562 35.605469 10.03125 35.554688 8.332031 C 35.1875 7.898438 34.832031 7.898438 34.480469 8.332031 C 34.339844 9.664062 34.503906 10.957031 34.976562 12.203125 C 35.617188 13.5 36.46875 14.621094 37.535156 15.570312 Z M 37.535156 15.570312 "/>
<use xlink:href="#surface11" mask="url(#mask2)"/>
<use xlink:href="#surface14" mask="url(#mask3)"/>
<use xlink:href="#surface17" mask="url(#mask4)"/>
<use xlink:href="#surface20" mask="url(#mask5)"/>
<use xlink:href="#surface23" mask="url(#mask6)"/>
<use xlink:href="#surface26" mask="url(#mask7)"/>
<use xlink:href="#surface29" mask="url(#mask8)"/>
<use xlink:href="#surface32" mask="url(#mask9)"/>
<use xlink:href="#surface35" mask="url(#mask10)"/>
<use xlink:href="#surface38" mask="url(#mask11)"/>
<path style=" stroke:none;fill-rule:evenodd;fill:rgb(5.882353%,3.921569%,1.568627%);fill-opacity:1;" d="M 29.285156 13.210938 C 30.96875 13.117188 31.960938 13.902344 32.253906 15.570312 C 30.820312 15.394531 29.390625 15.367188 27.964844 15.484375 C 27.757812 15.113281 27.785156 14.75 28.046875 14.390625 C 28.378906 13.902344 28.792969 13.507812 29.285156 13.210938 Z M 29.285156 13.210938 "/>
<use xlink:href="#surface41" mask="url(#mask12)"/>
<path style=" stroke:none;fill-rule:evenodd;fill:rgb(12.54902%,12.54902%,12.54902%);fill-opacity:1;" d="M 18.394531 14.894531 C 18.382812 15.152344 18.492188 15.320312 18.726562 15.402344 C 18.933594 15.710938 18.933594 16.019531 18.726562 16.328125 C 17.476562 16.308594 16.265625 16.503906 15.097656 16.914062 C 14.875 16.914062 14.65625 16.914062 14.4375 16.914062 C 14.4375 16.691406 14.4375 16.46875 14.4375 16.242188 C 14.484375 15.695312 14.703125 15.246094 15.097656 14.894531 C 15.347656 14.910156 15.511719 14.796875 15.589844 14.558594 C 16.609375 13.84375 17.546875 13.957031 18.394531 14.894531 Z M 18.394531 14.894531 "/>
<use xlink:href="#surface44" mask="url(#mask13)"/>
<use xlink:href="#surface47" mask="url(#mask14)"/>
<use xlink:href="#surface50" mask="url(#mask15)"/>
<use xlink:href="#surface53" mask="url(#mask16)"/>
<use xlink:href="#surface56" mask="url(#mask17)"/>
<use xlink:href="#surface59" mask="url(#mask18)"/>
<use xlink:href="#surface62" mask="url(#mask19)"/>
<use xlink:href="#surface65" mask="url(#mask20)"/>
<use xlink:href="#surface68" mask="url(#mask21)"/>
<use xlink:href="#surface71" mask="url(#mask22)"/>
<use xlink:href="#surface74" mask="url(#mask23)"/>
<use xlink:href="#surface77" mask="url(#mask24)"/>
<use xlink:href="#surface80" mask="url(#mask25)"/>
<use xlink:href="#surface83" mask="url(#mask26)"/>
<use xlink:href="#surface86" mask="url(#mask27)"/>
<use xlink:href="#surface89" mask="url(#mask28)"/>
<path style=" stroke:none;fill-rule:evenodd;fill:rgb(10.980392%,10.980392%,10.980392%);fill-opacity:1;" d="M 26.976562 19.105469 C 26.960938 19.359375 27.074219 19.53125 27.304688 19.609375 C 27.539062 20.601562 27.207031 21.414062 26.316406 22.050781 C 25.722656 22.449219 25.144531 22.871094 24.582031 23.3125 C 24.4375 23.894531 24.300781 24.453125 24.171875 24.996094 C 24.058594 24.996094 23.949219 24.996094 23.839844 24.996094 C 23.636719 24.632812 23.472656 24.242188 23.34375 23.816406 C 23.378906 23.535156 23.269531 23.367188 23.015625 23.3125 C 22.210938 22.996094 21.496094 22.546875 20.871094 21.964844 C 20.792969 21.730469 20.628906 21.617188 20.375 21.628906 C 20.367188 21.269531 20.203125 21.046875 19.878906 20.957031 C 19.644531 20.511719 19.699219 20.121094 20.046875 19.777344 C 20.210938 19.722656 20.320312 19.609375 20.375 19.441406 C 20.582031 19.164062 20.855469 18.96875 21.199219 18.851562 C 23.171875 18.214844 25.097656 18.300781 26.976562 19.105469 Z M 24.003906 19.777344 C 23.398438 19.664062 22.796875 19.554688 22.191406 19.441406 C 23.582031 18.996094 24.957031 19.023438 26.316406 19.523438 C 26.535156 19.75 26.535156 19.972656 26.316406 20.199219 C 25.558594 20.0625 24.789062 19.921875 24.003906 19.777344 Z M 24.003906 19.777344 "/>
<use xlink:href="#surface92" mask="url(#mask29)"/>
<use xlink:href="#surface95" mask="url(#mask30)"/>
<use xlink:href="#surface98" mask="url(#mask31)"/>
<use xlink:href="#surface101" mask="url(#mask32)"/>
<path style=" stroke:none;fill-rule:evenodd;fill:rgb(10.980392%,10.980392%,10.980392%);fill-opacity:1;" d="M 40.171875 22.976562 C 40.285156 23.199219 40.449219 23.367188 40.667969 23.480469 C 40.832031 23.535156 40.945312 23.648438 41 23.816406 C 40.984375 24.074219 41.097656 24.242188 41.328125 24.320312 C 41.824219 24.886719 42.042969 25.5625 41.988281 26.339844 C 43.628906 26.675781 45.332031 26.785156 47.101562 26.679688 C 47.101562 27.070312 47.101562 27.464844 47.101562 27.855469 C 45.257812 27.800781 43.445312 27.855469 41.660156 28.023438 C 40.894531 29.675781 39.628906 30.292969 37.863281 29.875 C 36.65625 30.746094 35.335938 31.027344 33.902344 30.71875 C 33.570312 30.476562 33.1875 30.367188 32.75 30.382812 C 32.019531 30.425781 31.304688 30.371094 30.605469 30.210938 C 30.527344 29.976562 30.363281 29.863281 30.109375 29.875 C 29.859375 29.886719 29.691406 29.777344 29.613281 29.539062 C 29.503906 29.316406 29.339844 29.148438 29.121094 29.035156 C 29.007812 29.035156 28.953125 28.980469 28.953125 28.867188 C 28.953125 28.640625 28.84375 28.53125 28.625 28.53125 C 26.046875 28.777344 23.460938 29.003906 20.871094 29.203125 C 20.289062 29.109375 19.796875 29.222656 19.386719 29.539062 C 18.476562 30.984375 17.15625 31.683594 15.425781 31.644531 C 14.640625 32.210938 13.757812 32.460938 12.785156 32.402344 C 11.527344 32.226562 10.261719 32.085938 8.992188 31.980469 C 8.429688 31.882812 7.90625 31.6875 7.425781 31.390625 C 5.714844 31.898438 3.984375 32.261719 2.226562 32.484375 C 1.664062 32.09375 1.609375 31.644531 2.0625 31.136719 C 3.363281 30.734375 4.683594 30.425781 6.023438 30.210938 C 6.1875 30.210938 6.351562 30.210938 6.515625 30.210938 C 6.554688 29.996094 6.5 29.828125 6.351562 29.707031 C 6.054688 28.574219 6.21875 27.507812 6.847656 26.511719 C 7.136719 26.382812 7.300781 26.15625 7.339844 25.835938 C 7.574219 25.757812 7.683594 25.589844 7.671875 25.332031 C 7.890625 24.996094 8.167969 24.714844 8.496094 24.488281 C 8.75 24.503906 8.914062 24.390625 8.992188 24.152344 C 12.578125 21.285156 15.878906 21.621094 18.890625 25.164062 C 18.878906 25.421875 18.988281 25.589844 19.21875 25.667969 C 19.414062 25.839844 19.523438 26.0625 19.550781 26.339844 C 19.578125 26.882812 19.691406 27.390625 19.878906 27.855469 C 22.449219 27.457031 25.035156 27.230469 27.632812 27.183594 C 27.910156 27.183594 28.183594 27.183594 28.460938 27.183594 C 28.460938 26.902344 28.460938 26.621094 28.460938 26.339844 C 28.460938 26.285156 28.460938 26.230469 28.460938 26.171875 C 28.695312 25.835938 28.804688 25.441406 28.789062 24.996094 C 28.816406 24.71875 28.925781 24.492188 29.121094 24.320312 C 29.351562 24.242188 29.460938 24.074219 29.449219 23.816406 C 29.679688 23.738281 29.792969 23.570312 29.78125 23.3125 C 30 22.976562 30.273438 22.695312 30.605469 22.46875 C 30.855469 22.484375 31.019531 22.371094 31.097656 22.132812 C 31.289062 21.839844 31.566406 21.671875 31.925781 21.628906 C 32.175781 21.640625 32.339844 21.527344 32.417969 21.292969 C 35.355469 20.175781 37.941406 20.738281 40.171875 22.976562 Z M 37.535156 22.808594 C 37.613281 23.042969 37.777344 23.15625 38.027344 23.144531 C 38.085938 23.285156 38.195312 23.339844 38.359375 23.3125 C 38.484375 23.609375 38.703125 23.777344 39.019531 23.816406 C 39.609375 24.402344 40.074219 25.074219 40.421875 25.835938 C 40.582031 26.558594 40.46875 27.230469 40.089844 27.855469 C 39.738281 28.21875 39.324219 28.417969 38.855469 28.445312 C 38.574219 27.566406 38.191406 26.753906 37.699219 26.003906 C 37.652344 25.871094 37.570312 25.761719 37.453125 25.667969 C 37.320312 26.152344 37.347656 26.601562 37.535156 27.015625 C 37.554688 28.003906 37.113281 28.675781 36.214844 29.035156 C 35.898438 29.085938 35.625 29.195312 35.390625 29.371094 C 35.058594 29.371094 34.730469 29.371094 34.398438 29.371094 C 34.0625 29.183594 33.84375 28.902344 33.738281 28.53125 C 33.644531 27.804688 33.589844 27.074219 33.574219 26.339844 C 33.785156 26.191406 33.785156 26.023438 33.574219 25.835938 C 33.339844 25.921875 33.230469 26.089844 33.242188 26.339844 C 33.105469 26.398438 33.050781 26.511719 33.078125 26.679688 C 32.847656 26.757812 32.738281 26.925781 32.75 27.183594 C 32.609375 27.5 32.554688 27.835938 32.585938 28.191406 C 32.429688 28.371094 32.375 28.597656 32.417969 28.867188 C 32.035156 28.867188 31.648438 28.867188 31.265625 28.867188 C 30.402344 28.488281 29.90625 27.816406 29.78125 26.847656 C 30.691406 23.535156 32.835938 22.046875 36.214844 22.386719 C 36.640625 22.578125 37.082031 22.71875 37.535156 22.808594 Z M 15.921875 24.488281 C 16 24.726562 16.164062 24.839844 16.414062 24.828125 C 16.492188 25.0625 16.660156 25.175781 16.910156 25.164062 C 17.648438 25.886719 18.140625 26.757812 18.394531 27.773438 C 18.269531 28.136719 18.15625 28.5 18.066406 28.867188 C 17.789062 29.035156 17.570312 29.257812 17.40625 29.539062 C 17.113281 29.605469 16.835938 29.71875 16.582031 29.875 C 16.414062 29.875 16.25 29.875 16.085938 29.875 C 16.125 29.660156 16.070312 29.492188 15.921875 29.371094 C 15.859375 28.738281 15.582031 28.230469 15.097656 27.855469 C 15.109375 27.605469 15 27.4375 14.765625 27.351562 C 14.554688 27.652344 14.554688 27.933594 14.765625 28.191406 C 14.765625 28.808594 14.765625 29.425781 14.765625 30.042969 C 14.546875 30.15625 14.382812 30.324219 14.269531 30.550781 C 14.109375 30.519531 13.996094 30.578125 13.941406 30.71875 C 13.398438 30.835938 12.847656 30.894531 12.292969 30.886719 C 11.375 30.625 10.878906 30.007812 10.804688 29.035156 C 10.832031 28.582031 10.804688 28.132812 10.722656 27.6875 C 10.550781 27.8125 10.46875 27.980469 10.476562 28.191406 C 10.070312 28.90625 9.90625 29.691406 9.980469 30.550781 C 9.421875 30.492188 8.871094 30.378906 8.332031 30.210938 C 8.222656 29.988281 8.058594 29.820312 7.835938 29.707031 C 7.542969 28.582031 7.765625 27.574219 8.496094 26.679688 C 8.730469 26.597656 8.839844 26.429688 8.828125 26.171875 C 9.933594 25.160156 11.199219 24.402344 12.621094 23.902344 C 13.789062 23.722656 14.890625 23.917969 15.921875 24.488281 Z M 15.921875 24.488281 "/>
<use xlink:href="#surface104" mask="url(#mask33)"/>
<use xlink:href="#surface107" mask="url(#mask34)"/>
<use xlink:href="#surface110" mask="url(#mask35)"/>
<use xlink:href="#surface113" mask="url(#mask36)"/>
<use xlink:href="#surface116" mask="url(#mask37)"/>
<use xlink:href="#surface119" mask="url(#mask38)"/>
<use xlink:href="#surface122" mask="url(#mask39)"/>
<use xlink:href="#surface125" mask="url(#mask40)"/>
<use xlink:href="#surface128" mask="url(#mask41)"/>
<use xlink:href="#surface131" mask="url(#mask42)"/>
<use xlink:href="#surface134" mask="url(#mask43)"/>
<use xlink:href="#surface137" mask="url(#mask44)"/>
<use xlink:href="#surface140" mask="url(#mask45)"/>
<use xlink:href="#surface143" mask="url(#mask46)"/>
<use xlink:href="#surface146" mask="url(#mask47)"/>
<use xlink:href="#surface149" mask="url(#mask48)"/>
<use xlink:href="#surface152" mask="url(#mask49)"/>
<use xlink:href="#surface155" mask="url(#mask50)"/>
<use xlink:href="#surface158" mask="url(#mask51)"/>
<use xlink:href="#surface161" mask="url(#mask52)"/>
<use xlink:href="#surface164" mask="url(#mask53)"/>
<use xlink:href="#surface167" mask="url(#mask54)"/>
<use xlink:href="#surface170" mask="url(#mask55)"/>
<use xlink:href="#surface173" mask="url(#mask56)"/>
<use xlink:href="#surface176" mask="url(#mask57)"/>
<use xlink:href="#surface179" mask="url(#mask58)"/>
<use xlink:href="#surface182" mask="url(#mask59)"/>
<use xlink:href="#surface185" mask="url(#mask60)"/>
<use xlink:href="#surface188" mask="url(#mask61)"/>
<use xlink:href="#surface191" mask="url(#mask62)"/>
<use xlink:href="#surface194" mask="url(#mask63)"/>
<use xlink:href="#surface197" mask="url(#mask64)"/>
<use xlink:href="#surface200" mask="url(#mask65)"/>
<use xlink:href="#surface203" mask="url(#mask66)"/>
<use xlink:href="#surface206" mask="url(#mask67)"/>
<use xlink:href="#surface209" mask="url(#mask68)"/>
<use xlink:href="#surface212" mask="url(#mask69)"/>
<use xlink:href="#surface215" mask="url(#mask70)"/>
<use xlink:href="#surface218" mask="url(#mask71)"/>
<use xlink:href="#surface221" mask="url(#mask72)"/>
<use xlink:href="#surface224" mask="url(#mask73)"/>
<use xlink:href="#surface227" mask="url(#mask74)"/>
</g>
</svg>
